<?xml version="1.0" encoding="UTF-8" standalone="no"?>
<!-- Created with Inkscape (http://www.inkscape.org/) -->

<svg
   version="1.1"
   id="svg2"
   width="80"
   height="80"
   viewBox="0 0 5333.3335 5333.3335"
     xmlns="http://www.w3.org/2000/svg">
  <defs
     id="defs6" />
  
  <g
     id="g8"
   
     transform="matrix(1.3333333,0,0,-1.3333333,0,5333.3333)">
    <g
       id="g10"
       transform="scale(0.1)">
      <path
         d="M 5590.4,10172.8 H 34409.6 V 15632 H 5590.4 Z m 29459.2,-1280 H 4950.4 c -353.47,0 -640,286.5 -640,640 V 16272 c 0,353.5 286.53,640 640,640 h 30099.2 c 353.5,0 640,-286.5 640,-640 V 9532.8 c 0,-353.5 -286.5,-640 -640,-640"
         style="fill:#000000;fill-opacity:1;fill-rule:nonzero;stroke:none"
         id="path12" />
      <path
         d="M 6165.2,16912 H 33834.8 L 24576,30416.8 H 15424 Z M 35049.6,15632 H 4950.4 c -353.46,0.9 -639.31,288.1 -638.45,641.5 0.31,127.9 38.92,252.8 110.85,358.5 L 14560,31418.8 c 119.4,174.1 316.9,278.1 528,278 h 9825.2 c 211.1,0.1 408.6,-103.9 528,-278 l 10136,-14785.2 c 198.8,-292.2 123.1,-690.3 -169.1,-889.2 -105.8,-71.9 -230.6,-110.5 -358.5,-110.8 v -1.6"
         style="fill:#000000;fill-opacity:1;fill-rule:nonzero;stroke:none"
         id="path14" />
      <path
         d="m 24913.2,30416.8 c -353.5,0 -640,286.5 -640,640 V 35360 h -8546.4 v -4303.2 c 0,-353.5 -286.5,-640 -640,-640 -353.5,0 -640,286.5 -640,640 V 36000 c 0,353.5 286.5,640 640,640 h 9826.4 c 353.5,0 640,-286.5 640,-640 v -4943.2 c 0,-353.5 -286.5,-640 -640,-640"
         style="fill:#000000;fill-opacity:1;fill-rule:nonzero;stroke:none"
         id="path16" />
      <path
         d="m 10440,13466.4 c -311.5,0 -564,-252.5 -564,-564 0,-311.5 252.5,-564 564,-564 h 2124.4 c 311.5,0 564,252.5 564,564 0,311.5 -252.5,564 -564,564 z m 2123.6,-2408 H 10440 c -1018.41,0 -1844,825.6 -1844,1844 0,1018.4 825.59,1844 1844,1844 h 2124.4 c 1018.4,0 1844,-825.6 1844,-1844 0,-1018.4 -825.6,-1844 -1844,-1844 h -0.8"
         style="fill:#000000;fill-opacity:1;fill-rule:nonzero;stroke:none"
         id="path18" />
      <path
         d="m 18937.6,13466.4 c -311.5,0 -564,-252.5 -564,-564 0,-311.5 252.5,-564 564,-564 h 2124.8 c 311.5,0 564,252.5 564,564 0,311.5 -252.5,564 -564,564 v 0 z m 2124.8,-2408 h -2124.8 c -1018.4,0 -1844,825.6 -1844,1844 0,1018.4 825.6,1844 1844,1844 v 0 h 2124.8 c 1018.4,0 1844,-825.6 1844,-1844 0,-1018.4 -825.6,-1844 -1844,-1844"
         style="fill:#000000;fill-opacity:1;fill-rule:nonzero;stroke:none"
         id="path20" />
      <path
         d="m 27435.6,13466.4 c -311.5,0 -564,-252.5 -564,-564 0,-311.5 252.5,-564 564,-564 H 29560 c 311.5,0 564,252.5 564,564 0,311.5 -252.5,564 -564,564 z m 2124.4,-2408 h -2123.6 c -1018.4,0 -1844,825.6 -1844,1844 0,1018.4 825.6,1844 1844,1844 H 29560 c 1018.4,0 1844,-825.6 1844,-1844 0,-1018.4 -825.6,-1844 -1844,-1844"
         style="fill:#000000;fill-opacity:1;fill-rule:nonzero;stroke:none"
         id="path22" />
      <path
         d="m 10614,3360 c -353.5,0 -640,286.5 -640,640 -3.91,253.8 34.5,506.4 113.6,747.6 76.8,243.1 76.8,504.1 0,747.2 -151.46,486.9 -151.46,1008.3 0,1495.2 42,119.9 61.5,246.6 57.6,373.6 0,353.5 286.5,640 640,640 353.5,0 640,-286.5 640,-640 3.8,-253.8 -34.6,-506.4 -113.6,-747.6 -76.8,-243.1 -76.8,-504.1 0,-747.2 151.5,-486.9 151.5,-1008.3 0,-1495.2 -42,-119.9 -61.5,-246.6 -57.6,-373.6 0,-353.5 -286.5,-640 -640,-640"
         style="fill:#000000;fill-opacity:1;fill-rule:nonzero;stroke:none"
         id="path24" />
      <path
         d="m 16814.4,3360 c -353.5,0 -640,286.5 -640,640 -3.9,253.8 34.5,506.4 113.6,747.6 76.8,243.1 76.8,504.1 0,747.2 -151.5,486.9 -151.5,1008.3 0,1495.2 41.8,120 61.3,246.6 57.6,373.6 0,353.5 286.5,640 640,640 353.5,0 640,-286.5 640,-640 3.8,-253.8 -34.6,-506.4 -113.6,-747.6 -76.8,-243.1 -76.8,-504.1 0,-747.2 151.5,-486.9 151.5,-1008.3 0,-1495.2 -42,-119.9 -61.5,-246.6 -57.6,-373.6 0,-353.5 -286.5,-640 -640,-640"
         style="fill:#000000;fill-opacity:1;fill-rule:nonzero;stroke:none"
         id="path26" />
      <path
         d="m 23014.4,3360 c -353.5,0 -640,286.5 -640,640 -3.9,253.8 34.5,506.4 113.6,747.6 76.8,243.1 76.8,504.1 0,747.2 -151.5,486.9 -151.5,1008.3 0,1495.2 42,119.9 61.5,246.6 57.6,373.6 0,353.5 286.5,640 640,640 353.5,0 640,-286.5 640,-640 3.8,-253.8 -34.6,-506.4 -113.6,-747.6 -76.8,-243.1 -76.8,-504.1 0,-747.2 151.5,-486.9 151.5,-1008.3 0,-1495.2 -41.8,-120 -61.3,-246.6 -57.6,-373.6 0,-353.5 -286.5,-640 -640,-640"
         style="fill:#000000;fill-opacity:1;fill-rule:nonzero;stroke:none"
         id="path28" />
      <path
         d="m 29214.8,3360 c -353.5,0 -640,286.5 -640,640 -3.9,253.8 34.5,506.4 113.6,747.6 76.8,243.1 76.8,504.1 0,747.2 -151.5,486.9 -151.5,1008.3 0,1495.2 42,119.9 61.5,246.6 57.6,373.6 0,353.5 286.5,640 640,640 353.5,0 640,-286.5 640,-640 3.8,-253.8 -34.6,-506.4 -113.6,-747.6 -76.8,-243.1 -76.8,-504.1 0,-747.2 151.5,-486.9 151.5,-1008.3 0,-1495.2 -42,-119.9 -61.5,-246.6 -57.6,-373.6 0,-353.5 -286.5,-640 -640,-640"
         style="fill:#000000;fill-opacity:1;fill-rule:nonzero;stroke:none"
         id="path30" />
    </g>
  </g>
</svg>
