<?xml version="1.0" encoding="UTF-8" standalone="no"?>
<!-- Created with Inkscape (http://www.inkscape.org/) -->

<svg
   version="1.1"
   id="svg2"
   width="80"
   height="80"
   viewBox="0 0 466.66666 466.66666"
   xmlns="http://www.w3.org/2000/svg">
  <defs
     id="defs6" />
  <g
     id="g8"
   
     transform="matrix(1.3333333,0,0,-1.3333333,0,466.66667)">
    <g
       id="g10"
       transform="scale(0.1)">
      <path
         d="m 3194.55,2098.56 c -0.01,0.03 -0.01,0.07 -0.02,0.09 -30.09,78.51 -77.26,149.26 -144.83,206.9 l -0.09,0.06 c -90.86,77.63 -194.4,112.17 -297.43,112.21 h -0.56 c -88.66,-0.02 -177.23,-25.24 -258.46,-69.71 -81.11,-44.41 -154.88,-107.99 -214.21,-185.04 l -0.11,-0.14 c -0.02,-0.04 -0.06,-0.08 -0.1,-0.12 l -0.01,-0.02 -0.07,-0.09 c -12.46,-15.9 -24.34,-32.44 -36.08,-49.3 -3.38,-4.84 -8.74,-7.72 -14.62,-7.9 h -0.54 c -5.68,0 -10.97,2.57 -14.51,7.06 -100.83,128.53 -254.1,213.73 -427.56,224.04 -9.89,0.59 -17.33,8.62 -17.35,18.36 l 0.02,0.92 c 1.19,24.52 7.08,49.35 16.01,73.69 8.93,24.25 20.83,47.7 34.41,69.1 0.03,0.03 0.04,0.06 0.08,0.08 13.84,21.92 31.75,39.72 52.23,53.88 0.01,0.01 0.02,0.02 0.03,0.03 36.41,25.18 81.18,39.94 130.37,50.52 0,0 0,0 0.02,0 36.8,7.95 75.42,13.3 113.91,18.8 38.51,5.51 76.72,11.15 112.46,19.45 35.79,8.36 68.77,19.34 97.26,36.03 l 0.55,0.35 0.05,0.03 v 0.01 c 27.69,16.3 51.19,38.71 66.68,68.5 l 0.01,-0.01 0.04,0.07 0.25,0.48 c 17.51,33.8 25.46,66.4 25.46,96.87 v 0.3 c 0,22.74 -4.41,44.46 -12.2,64.97 -7.84,20.61 -19.12,40.08 -32.93,58.22 -20.87,27.45 -47.29,52.26 -76.83,74.61 -29.51,22.32 -62,42.09 -94.81,59.53 0,0 -0.01,0 -0.01,0 -0.16,0.09 -0.35,0.18 -0.51,0.27 v 0 l -0.06,0.04 c -0.01,0 -0.04,0.01 -0.05,0.01 -65.43,34.58 -131.78,59.31 -177.71,73.99 -120.54,38.48 -246.34,62.1 -366.46,62.12 h -0.13 c -89.71,0 -176.18,-13.17 -254.81,-43.31 -78.52,-30.08 -149.26,-77.26 -206.9,-144.84 l -0.05,-0.04 c -0.02,-0.03 -0.03,-0.05 -0.06,-0.08 l -0.09,-0.11 -0.03,-0.03 c -77.5,-90.85 -112,-194.29 -112.04,-297.26 v -0.54 c 0.01,-88.68 25.24,-177.25 69.71,-258.48 44.49,-81.25 108.18,-155.12 185.39,-214.48 l -0.03,0.02 0.29,-0.22 -0.14,0.11 c 15.85,-12.42 32.36,-24.29 49.18,-36.01 4.83,-3.37 7.72,-8.72 7.9,-14.61 v -0.55 c 0,-5.67 -2.57,-10.97 -7.06,-14.5 -128.53,-100.81 -213.72,-254.09 -224.02,-427.54 -0.61,-9.91 -8.62,-17.33 -18.38,-17.36 l -0.94,0.01 h 0.05 c -24.54,1.2 -49.37,7.09 -73.71,16.02 -24.25,8.93 -47.71,20.84 -69.13,34.45 -0.02,0 -0.02,0.02 -0.04,0.03 -21.914,13.84 -39.707,31.75 -53.875,52.23 -25.203,36.38 -39.953,81.17 -50.546,130.37 0,0.01 0,0.01 0,0.02 -7.961,36.79 -13.297,75.44 -18.805,113.95 -5.508,38.49 -11.149,76.72 -19.441,112.45 -8.344,35.69 -19.286,68.56 -35.907,96.98 l 0.016,0.01 -0.027,0.04 -0.145,0.25 c -16.414,28.09 -39.082,51.93 -69.312,67.51 l -0.305,0.15 -0.074,0.04 -0.004,-0.01 c -33.696,17.41 -66.188,25.33 -96.578,25.33 h -0.321 c -22.722,0 -44.437,-4.4 -64.953,-12.21 h -0.015 c -20.571,-7.83 -40.04,-19.12 -58.204,-32.92 -27.445,-20.89 -52.254,-47.31 -74.609,-76.83 -22.223,-29.38 -41.898,-61.72 -59.285,-94.36 -0.008,-0.02 -0.016,-0.03 -0.024,-0.04 l -0.031,-0.05 h 0.008 c -0.07,-0.14 -0.148,-0.27 -0.223,-0.4 -0.007,-0.02 -0.007,-0.03 -0.011,-0.03 -34.75,-65.6 -59.567,-132.2 -74.282,-178.28 -38.484,-120.54 -62.109,-246.35 -62.129,-366.49 v -0.1 c 0.004,-89.7 13.18,-176.18 43.321,-254.8 30.078,-78.51 77.261,-149.26 144.84,-206.92 l 0.125,-0.09 c 90.89,-77.59 194.394,-112.12 297.441,-112.16 h 0.602 c 88.636,0.03 177.171,25.25 258.373,69.7 81.15,44.44 154.93,108.04 214.25,185.12 h 0.01 l 0.06,0.09 0.03,0.03 0.22,0.27 c 12.41,15.86 24.3,32.38 36.02,49.2 3.37,4.84 8.72,7.73 14.64,7.91 h 0.5 c 5.69,0 10.98,-2.57 14.53,-7.08 100.8,-128.52 254.07,-213.72 427.53,-224.03 9.89,-0.6 17.33,-8.63 17.35,-18.38 l -0.02,-0.95 v 0.05 c -1.2,-24.51 -7.08,-49.32 -16,-73.65 -8.94,-24.3 -20.87,-47.79 -34.49,-69.22 -13.84,-21.903 -31.76,-39.696 -52.23,-53.876 l 0.03,0.012 c -36.39,-25.168 -81.14,-39.934 -130.33,-50.539 h -0.03 c -36.81,-7.957 -75.48,-13.301 -114,-18.82 -38.49,-5.497 -76.7,-11.141 -112.42,-19.422 v 0 c -0.02,-0.008 -0.04,-0.008 -0.05,-0.008 0,0 -0.01,0 -0.02,-0.012 -35.66,-8.351 -68.54,-19.277 -96.95,-35.89 l -0.01,0.011 -0.04,-0.019 -0.2,-0.11 c 0,-0.007 -0.01,-0.007 -0.02,-0.007 l -0.04,-0.032 c -28.08,-16.425 -51.93,-39.09 -67.5,-69.324 l -0.16,-0.305 -0.04,-0.086 h 0.01 c -17.4,-33.679 -25.32,-66.179 -25.32,-96.574 v -0.312 c 0,-22.723 4.4,-44.442 12.21,-64.957 l 0.01,-0.012 c 7.8,-20.535 19.07,-39.973 32.83,-58.098 0.04,-0.039 0.05,-0.078 0.08,-0.105 20.87,-27.442 47.3,-52.254 76.84,-74.61 29.48,-22.304 61.96,-42.07 94.74,-59.503 0.02,-0.008 0.05,-0.039 0.07,-0.047 65.57,-34.715 132.15,-59.551 178.25,-74.27 0.03,-0.008 0.05,-0.027 0.08,-0.039 120.5,-38.465 246.27,-62.066 366.36,-62.117 h 0.24 c 89.69,0.008 176.17,13.176 254.79,43.32 78.52,30.078 149.27,77.254 206.93,144.844 l 0.02,0.051 c 77.64,90.886 112.18,194.402 112.21,297.449 v 0.652 c -0.03,88.606 -25.23,177.11 -69.67,258.305 l -0.02,0.07 c -44.48,81.22 -108.13,155.07 -185.31,214.41 l -0.14,0.12 -0.07,-0.1 c -0.04,0.02 -0.06,0.05 -0.1,0.06 l 0.09,0.1 c -15.86,12.4 -32.36,24.27 -49.19,36.01 -4.82,3.37 -7.71,8.74 -7.89,14.62 v 0.52 c 0,5.69 2.57,10.98 7.06,14.51 128.53,100.82 213.73,254.1 224.04,427.55 0.31,4.89 2.43,9.12 5.82,12.32 3.41,3.19 7.79,5.04 12.6,5.04 l 0.87,-0.03 c 24.5,-1.18 49.32,-7.07 73.65,-15.99 24.3,-8.94 47.78,-20.87 69.21,-34.5 0,0 0.02,0 0.02,-0.01 21.9,-13.82 39.72,-31.76 53.85,-52.22 0.02,-0.01 0.03,-0.02 0.03,-0.04 25.16,-36.36 39.92,-81.1 50.51,-130.28 0,0 0,0 0,0 7.95,-36.81 13.3,-75.48 18.81,-114.02 5.51,-38.5 11.15,-76.69 19.44,-112.41 0,-0.01 0.01,-0.02 0.01,-0.03 v -0.01 c 8.36,-35.79 19.35,-68.77 36.04,-97.26 l 0.71,-1.14 c 16.21,-27.31 38.38,-50.52 67.75,-65.89 l -0.01,-0.01 0.09,-0.05 0.67,-0.36 c 0.05,-0.03 0.09,-0.07 0.13,-0.09 l 0.11,-0.04 c 33.78,-17.49 66.36,-25.46 96.86,-25.46 h 0.3 c 22.76,0 44.46,4.41 64.96,12.2 h 0.02 c 20.58,7.84 40.06,19.12 58.2,32.93 27.44,20.87 52.26,47.28 74.62,76.83 22.3,29.49 42.06,61.97 59.49,94.74 0.01,0.03 0.04,0.05 0.05,0.07 34.71,65.59 59.55,132.14 74.27,178.27 0.01,0.02 0.03,0.05 0.04,0.08 38.44,120.4 62.04,246.08 62.1,366.1 h 0.01 v 0.75 c -0.04,89.59 -13.21,175.95 -43.3,254.45 z M 903.789,1255.33 c -0.863,-0.24 -56.426,-18.87 -130.226,-22.32 -66.868,-3.1 -150.243,6.12 -221.954,55.59 -73.269,50.51 -132.589,143.09 -149.89,302.3 -7.856,71.73 -7.535,157.67 3.578,260.98 0.965,8.97 9.082,14.99 18.273,13.57 9.18,-1.44 16.219,-9.82 15.868,-18.83 0.027,-0.06 -0.321,-8.26 0.027,-23.47 0.348,-15.18 1.355,-36.92 4.035,-63.08 8.242,-81.64 32.895,-204.48 101.48,-303.59 66.774,-95.93 172.504,-171.07 354.004,-173.3 7.356,-0.11 13.551,-5.13 14.754,-11.99 0.094,-0.55 0.157,-1.13 0.192,-1.69 0.273,-6.24 -3.758,-12.03 -10.141,-14.17 z M 1283.2,2601.01 c -0.09,-7.36 -5.12,-13.56 -11.99,-14.76 -0.56,-0.09 -1.12,-0.15 -1.68,-0.18 -6.25,-0.28 -12.04,3.75 -14.18,10.13 -0.25,0.87 -18.87,56.43 -22.33,130.23 -3.1,66.87 6.14,150.25 55.61,221.95 50.51,73.27 143.09,132.6 302.28,149.9 71.73,7.86 157.68,7.53 260.97,-3.59 8.98,-0.96 14.98,-9.06 13.57,-18.26 -1.43,-9.18 -9.82,-16.22 -18.84,-15.88 -0.05,-0.02 -8.24,0.33 -23.45,-0.02 -15.18,-0.35 -36.93,-1.35 -63.08,-4.03 -81.63,-8.25 -204.47,-32.9 -303.57,-101.48 -95.95,-66.78 -171.08,-172.5 -173.31,-354.01 z M 2216.8,898.965 c 0.09,7.351 5.11,13.555 11.99,14.754 0.56,0.097 1.13,0.16 1.68,0.199 6.25,0.27 12.04,-3.762 14.18,-10.141 0.24,-0.867 18.86,-56.433 22.32,-130.23 3.1,-66.867 -6.13,-150.246 -55.6,-221.953 -50.5,-73.274 -143.08,-132.59 -302.29,-149.895 -71.72,-7.851 -157.65,-7.527 -260.96,3.582 -8.98,0.957 -14.99,9.082 -13.58,18.274 1.44,9.179 9.83,16.218 18.84,15.871 0.06,0.027 8.26,-0.324 23.46,0.027 15.19,0.344 36.93,1.356 63.09,4.031 81.62,8.243 204.47,32.895 303.57,101.477 95.93,66.777 171.07,172.508 173.3,354.004 z m -14.01,850.975 c -0.01,-124.8 -50.8,-238 -132.76,-319.97 l -0.02,-0.02 c -81.97,-81.96 -195.17,-132.75 -319.99,-132.76 h -0.08 c -124.8,0.01 -237.99,50.8 -319.96,132.76 l -0.02,0.02 c -81.95,81.97 -132.75,195.17 -132.75,319.99 v 0.06 h -0.01 v 0.02 h 0.01 c 0,124.8 50.79,237.99 132.77,319.97 81.97,81.96 195.16,132.75 319.97,132.76 h 0.07 v 0.01 h 0.02 v -0.01 c 124.8,-0.01 238,-50.79 319.99,-132.77 81.96,-81.97 132.75,-195.16 132.76,-319.98 z m 891.92,-101.83 c -0.96,-8.99 -9.08,-15 -18.28,-13.58 -9.18,1.44 -16.22,9.83 -15.86,18.84 -0.03,0.04 0.31,8.23 -0.03,23.45 -0.35,15.18 -1.37,36.92 -4.04,63.09 -8.24,81.64 -32.89,204.48 -101.49,303.58 -66.77,95.94 -172.49,171.07 -353.99,173.3 -7.35,0.1 -13.55,5.12 -14.75,12 -0.1,0.55 -0.16,1.12 -0.2,1.67 -0.28,6.25 3.75,12.04 10.14,14.18 0.87,0.26 56.42,18.88 130.24,22.34 66.86,3.1 150.24,-6.14 221.93,-55.61 73.29,-50.51 132.6,-143.09 149.91,-302.28 7.85,-71.74 7.52,-157.68 -3.58,-260.98 z m -107.3,1339.29 v 0.01 C 2670.68,3304.1 2233.31,3499.94 1749.99,3499.98 1266.67,3499.94 829.285,3304.1 512.559,2987.41 195.852,2670.68 0.0234375,2233.29 0,1749.96 0.0273438,1266.66 195.859,829.305 512.555,512.578 829.285,195.867 1266.67,0.0390625 1749.99,0 c 483.32,0.0390625 920.69,195.867 1237.42,512.578 316.71,316.727 512.55,754.082 512.59,1237.382 -0.04,483.34 -195.88,920.72 -512.59,1237.44 z m -95.67,-2379.146 -0.01,-0.012 C 2599.34,315.945 2196.06,135.359 1749.98,135.32 1303.91,135.359 900.637,315.945 608.254,608.242 l -0.016,0.012 c -292.285,292.383 -472.89,695.656 -472.91,1141.716 0.02,446.1 180.625,849.34 472.926,1141.75 0.027,0.03 0.059,0.07 0.082,0.1 292.371,292.25 695.614,472.81 1141.664,472.83 446.06,-0.02 849.34,-180.63 1141.74,-472.93 292.29,-292.41 472.88,-695.65 472.92,-1141.76 -0.04,-446.05 -180.63,-849.323 -472.92,-1141.706"
         style="fill:#211d1d;fill-opacity:1;fill-rule:nonzero;stroke:none"
         id="path12" />
    </g>
  </g>
</svg>
