<?xml version="1.0" encoding="UTF-8" standalone="no"?>
<!-- Created with Inkscape (http://www.inkscape.org/) -->

<svg
   version="1.1"
   id="svg2"
   width="80"
   height="80"
   viewBox="0 0 5164 5164"
   xmlns="http://www.w3.org/2000/svg">
  <defs
     id="defs6" />
  <g
     id="g8"
     transform="matrix(1.3333333,0,0,-1.3333333,0,5164)">
    <g
       id="g10"
       transform="scale(0.1)">
      <path
         d="m 21990,13710 c 21,-132 218,-233 525,-272 181,-23 366,-37 563,-51 698,-51 1482,-108 2309,-634 l 2147,2147 -1253,1754 -2185,2185 c -29,29 -63,33 -81,33 -18,0 -52,-4 -81,-33 -1,-1 -1,-2 -2,-2 -27,-28 -31,-61 -31,-79 0,-16 3,-45 24,-71 10,-9 19,-19 28,-29 l 1583,-1583 c 59,-59 89,-136 89,-214 0,-77 -30,-155 -89,-214 -118,-118 -310,-118 -428,0 l -1602,1602 v 0 0 0 l -199,199 c -84,84 -234,84 -318,0 -42,-42 -65,-99 -65,-159 0,-60 23,-117 65,-159 l 474,-474 c 1,-1 2,-2 3,-2 l 1272,-1273 c 59,-59 89,-136 89,-214 0,-77 -30,-155 -89,-214 -118,-118 -310,-118 -428,0 l -1963,1963 c -84,84 -234,84 -318,0 -42,-42 -65,-99 -65,-159 0,-60 23,-116 64,-158 l 1964,-1964 c 59,-59 89,-136 89,-214 0,-77 -30,-155 -89,-214 -118,-118 -310,-118 -428,0 l -1491,1491 c -1,1 -3,3 -4,4 l -468,468 c -1,1 -3,3 -4,4 l -158,158 c -84,84 -234,84 -318,0 -1,-1 -2,-2 -3,-3 -40,-42 -63,-97 -63,-156 0,-61 23,-117 65,-159 l 2125,-2125 c 58,-58 89,-135 89,-214 0,-47 -11,-95 -34,-139 -24,-47 -254,-457 -893,-531 -241,-28 -370,-212 -417,-295 z M 10287,7039 h 18156 v 5300 l -1653,-1653 c -100,-100 -234,-156 -376,-156 -142,0 -276,55 -376,156 l -983,983 c -171,171 -201,430 -90,632 -665,390 -1308,437 -1931,482 -196,14 -399,29 -596,54 -979,126 -1055,712 -1055,889 0,62 8,107 12,123 4,16 8,33 15,48 94,234 394,646 928,709 111,13 196,42 261,75 l -1905,1905 c -156,156 -242,365 -242,587 0,222 86,430 242,587 2,2 3,3 5,5 156,153 362,238 582,238 38,0 76,-3 113,-8 39,131 109,250 208,349 156,156 365,243 587,243 61,0 120,-6 178,-19 41,115 107,220 195,308 156,156 365,243 587,243 78,0 154,-11 227,-31 34,65 78,126 131,179 2,2 3,3 5,5 135,132 314,205 504,205 192,0 373,-75 509,-210 l 2203,-2203 c 12,-12 23,-25 32,-38 l 1241,-1737 c 144,49 312,32 443,-45 v 5769 c 0,167 135,303 303,303 h 2463 L 19365,33158 7521,21314 h 2463 c 167,0 303,-135 303,-303 V 7039 Z M 28745,6434 H 9984 c -167,0 -303,135 -303,303 V 20709 H 6791 c -122,0 -233,74 -280,187 -47,113 -21,243 66,330 l 12574,12574 c 113,113 314,113 428,0 L 32153,21226 c 87,-87 112,-217 66,-330 -47,-113 -157,-187 -280,-187 h -2891 v -6173 c 0,-122 -74,-233 -187,-280 -113,-47 -243,-21 -330,66 l -360,359 -2533,-2533 -1,-1 -102,-102 879,-879 2117,2117 c 87,87 216,112 330,66 113,-47 187,-157 187,-280 V 6736 c 0,-166 -135,-302 -303,-302 v 0"
         style="fill:#000000;fill-opacity:1;fill-rule:evenodd;stroke:none"
         id="path12" />
      <path
         d="m 24439,28939 2984,-2984 v 6459 h -2984 v -3475 z m 3287,-4017 c -79,0 -156,31 -214,89 l -3589,3589 c -57,57 -89,134 -89,214 v 3903 c 0,167 135,303 303,303 h 3589 c 167,0 303,-135 303,-303 v -7492 c 0,-122 -74,-233 -187,-280 -38,-15 -77,-23 -116,-23 v 0"
         style="fill:#000000;fill-opacity:1;fill-rule:evenodd;stroke:none"
         id="path14" />
      <path
         d="m 13021,7039 h 4416 v 8508 h -4416 z m 4718,-605 h -5021 c -167,0 -303,135 -303,303 v 9113 c 0,167 135,303 303,303 h 5021 c 167,0 303,-135 303,-303 V 6737 c -1,-167 -136,-303 -303,-303"
         style="fill:#000000;fill-opacity:1;fill-rule:evenodd;stroke:none"
         id="path16" />
      <path
         d="m 19365,27831 c -1121,0 -2032,-912 -2032,-2032 0,-1121 912,-2032 2032,-2032 1121,0 2032,912 2032,2032 0,1120 -911,2032 -2032,2032 z m 0,-4670 c -1454,0 -2638,1183 -2638,2637 0,1454 1183,2637 2638,2637 1454,0 2637,-1183 2637,-2637 0,-1454 -1183,-2637 -2637,-2637"
         style="fill:#000000;fill-opacity:1;fill-rule:evenodd;stroke:none"
         id="path18" />
      <path
         d="m 21988,13708 c 13,-106 175,-225 527,-270 181,-23 366,-37 563,-51 698,-51 1482,-108 2309,-634 l 2147,2147 -1253,1754 -2185,2185 c -29,29 -63,33 -81,33 -18,0 -52,-4 -81,-33 -1,-1 -1,-1 -2,-2 -41,-43 -41,-114 0,-157 l 1604,-1604 c 118,-118 118,-310 0,-428 -118,-118 -310,-118 -428,0 l -1230,1230 c -1,1 -3,3 -4,4 l -367,367 c -2,2 -4,4 -6,6 l -193,193 c -84,84 -234,84 -318,0 -88,-88 -88,-230 0,-318 l 1749,-1749 c 118,-118 118,-310 0,-428 -118,-118 -310,-118 -428,0 l -1749,1749 -1,1 -213,213 c -84,84 -234,84 -318,0 -87,-87 -88,-227 -3,-315 l 1966,-1967 c 118,-118 118,-310 0,-428 -118,-118 -310,-118 -428,0 l -1491,1491 c -1,1 -2,2 -3,3 l -468,468 c -2,2 -4,4 -6,7 l -155,155 c -84,84 -234,84 -318,0 -42,-42 -65,-99 -65,-159 0,-60 23,-117 65,-159 l 2125,-2125 c 93,-93 115,-236 55,-353 -24,-47 -254,-457 -893,-531 -249,-26 -379,-216 -423,-295 z m 3547,-1663 879,-879 2637,2637 -879,879 -25,-25 c -2,-2 -5,-5 -7,-7 l -2498,-2499 c -2,-2 -5,-5 -7,-7 l -100,-99 z m 879,-1514 c -142,0 -276,55 -376,156 l -983,983 c -171,171 -201,430 -90,632 -665,390 -1308,437 -1931,482 -196,14 -399,29 -596,54 -434,56 -742,208 -915,453 -182,258 -139,511 -129,559 4,16 8,32 15,48 94,234 394,646 928,709 111,13 197,42 261,75 l -1906,1906 c -324,323 -324,850 0,1174 156,156 365,243 587,243 38,0 76,-2 113,-7 39,131 109,250 208,349 156,156 365,243 587,243 61,0 120,-6 178,-19 41,115 107,220 195,308 156,156 365,243 587,243 78,0 154,-11 228,-31 34,65 78,126 131,179 2,2 3,4 5,5 281,275 734,274 1012,-5 l 2203,-2203 c 12,-12 23,-25 32,-38 l 1241,-1737 c 186,64 400,21 548,-127 l 983,-983 c 100,-100 155,-234 155,-376 0,-142 -55,-276 -156,-376 l -2739,-2744 v 0 c -100,-100 -234,-155 -376,-155 v 0"
         style="fill:#000000;fill-opacity:1;fill-rule:evenodd;stroke:none"
         id="path20" />
      <path
         d="m 25204,11801 h -4442 c -630,0 -1142,512 -1142,1142 v 6688 c 0,630 512,1142 1142,1142 h 4957 c 630,0 1142,-512 1142,-1142 v -2781 c 0,-167 -135,-303 -303,-303 -167,0 -303,135 -303,303 v 2782 c 0,296 -241,537 -537,537 h -4957 c -296,0 -537,-241 -537,-537 v -6688 c 0,-296 241,-537 537,-537 h 4442 c 167,0 303,-135 303,-303 1,-167 -135,-303 -302,-303 v 0"
         style="fill:#000000;fill-opacity:1;fill-rule:evenodd;stroke:none"
         id="path22" />
      <path
         d="m 11887,23859 c -77,0 -155,30 -214,89 -118,118 -118,310 0,428 l 4760,4760 c 118,118 310,118 428,0 118,-118 118,-310 0,-428 l -4760,-4760 c -60,-59 -137,-89 -214,-89"
         style="fill:#000000;fill-opacity:1;fill-rule:evenodd;stroke:none"
         id="path24" />
      <path
         d="M 31118,6434 H 7612 c -167,0 -303,135 -303,303 0,167 135,303 303,303 h 23506 c 167,0 303,-135 303,-303 -1,-167 -136,-303 -303,-303 v 0"
         style="fill:#000000;fill-opacity:1;fill-rule:evenodd;stroke:none"
         id="path26" />
      <path
         d="M 28427,4845 H 10303 c -167,0 -303,135 -303,303 0,168 135,303 303,303 h 18124 c 167,0 303,-135 303,-303 0,-168 -136,-303 -303,-303"
         style="fill:#000000;fill-opacity:1;fill-rule:evenodd;stroke:none"
         id="path28" />
    </g>
  </g>
</svg>
