<?xml version="1.0" encoding="UTF-8" standalone="no"?>
<svg
    version="1.1"
   id="svg2"
   width="80"
   height="80"
   viewBox="0 0 3718.8533 3868.96"
   xmlns="http://www.w3.org/2000/svg">
  <defs id="defs6" />
  <g id="g8" transform="matrix(1.3333333,0,0,-1.3333333,0,3868.96)">
    <g id="g10" transform="scale(0.1)">
      <path
         d="m 14955.1,13423.6 c -120.9,3.7 -243.3,-37.9 -336.6,-125.7 l -1352.1,-1272.1 c -186.7,-175.7 -196,-478.2 -20.4,-664.9 l 460.4,-489.4 c 175.7,-186.7 478.2,-195.9 665,-20.3 l 480.2,451.8 1752.4,-2041.29 c -200.5,-268.33 -197.7,-646.66 28.2,-913.93 l 3458.2,-4091.37 c 237.8,-281.37 638,-339.28 942.8,-153.77 l 1177,-1370.91 68.3,-539.19 c 67.1,18.97 137.6,29.35 210.4,29.35 429.3,0 782.4,-353.1 782.4,-782.35 0,-145.89 -40.9,-282.93 -111.6,-400.34 l 1945.1,19.55 c 42.9,0.43 80.7,28.5 93.5,69.5 12.7,40.99 -2.4,85.54 -37.5,110.27 l -2390.4,1683.82 -1331.8,1551.2 c 172.9,265.14 160,620.91 -55.3,875.65 l -245.7,290.62 56.1,46.78 c 107.5,89.67 121.8,248.39 32.1,355.86 l -1636.6,1961.5 c -89.7,107.47 -248.4,121.8 -355.9,32.13 l -71,-59.25 -1237.2,1463.74 c -227.5,269.1 -603.7,334.11 -902.7,177 l -1770.4,2062.13 471.5,443.6 c 186.7,175.7 196,478.3 20.3,665 l -460.4,489.3 c -87.8,93.4 -207.4,142.3 -328.3,146 z m -15.1,-496.1 433.5,-460.7 -1323.7,-1245.3 -433.4,460.8 z M 22488.9,1988.83 c -302.3,0 -549.2,-246.99 -549.2,-549.29 0,-302.31 246.9,-549.251 549.2,-549.251 302.3,0 549.3,246.941 549.3,549.251 0,302.3 -247,549.29 -549.3,549.29"
         style="fill:#000000;fill-opacity:1;fill-rule:nonzero;stroke:none"
         id="path12" />
      <path
         d="m 10087.6,17459 c 249.5,-328.6 286.2,-791.9 55.3,-1160.6 v -0.4 c -0.5,-0.5 -280.01,-447.8 -560.11,-1013.3 -8.48,-17.1 -16.62,-35.8 -25.04,-53.3 0.46,-1.1 0.6,-2 0.92,-3.2 232.62,-652.5 502.63,-1388.3 1031.53,-1954.7 20.8,256.9 44.5,512.4 69.6,735.9 19.8,175.8 39,330.5 55,448.4 16,117.9 15.7,156.7 41.6,252.4 221.6,819.9 259,946.4 287,1045 -0.4,0.7 -0.6,1.4 -0.6,2 -216.3,606.7 -346,1129.3 -346,1129.3 -76.8,291.7 -313.3,513.9 -609.2,572.4 z m -588.12,-111.2 c -275.98,-182.4 -408.63,-517.8 -332.04,-839.6 0,0 69.66,-274.2 185.66,-653.6 216.77,404.9 394.91,690.4 394.91,690.4 0,0.2 0,0.3 0,0.5 164.13,261.9 86.44,600.4 -175.47,764.5 -23.4,14.7 -47.95,27 -73.06,38 z m 1940.12,-2497.3 c -44.4,-162.2 -18.5,-63.6 -83.1,-302.6 14.2,52.6 -10.6,-62.2 -25.7,-173.9 -15.2,-111.7 -34,-262.7 -53.2,-434.2 -38.6,-343 -79.1,-769.8 -98.3,-1136.6 -0.5,-8.8 -0.5,-14.1 -0.9,-22.9 450.5,-297.6 948.3,-494.2 1392.3,-658.4 164.1,-60.8 318.6,-113.3 460.9,-159.6 31.9,64.3 73.3,124.9 128.3,176.6 l 1135.7,1068.5 c -63.6,37 -131.9,65 -203.2,83.1 0,0 -443.3,112.2 -975.1,308.9 -531.8,196.8 -1144.6,516.5 -1337.7,705.3 -76.7,75 -204.5,283 -340,545.8 z m 3088.4,-1851 -1155.3,-1086.9 c -14.5,-13.7 -27.1,-28.8 -38.4,-44.6 111.3,-33.2 130.2,-37.9 194,-55.3 l 1092.1,1027.5 c -24.5,56.5 -55.5,110 -92.4,159.3 z m 156.2,-525.9 -766.8,-721.4 c 350.5,6.4 654.6,243.5 746.2,581.8 11,45.8 17.9,92.5 20.6,139.6 z M 9543.77,11313.7 c -53.12,-2.7 -105.99,-9 -158.26,-18.8 -323.9,-76.4 -600.56,-285.8 -762.01,-576.8 171.15,-193.3 455.94,-245.2 689.7,-111 251.42,144.5 346.75,448.3 230.57,706.6 z m 501.33,-75.9 c 58.3,-402.5 -127.53,-820.5 -499.94,-1034.4 -347.95,-199.8 -767.57,-168.8 -1080.88,42.5 -11.21,-120.1 -3.97,-241.2 21.47,-359.12 l 1002.61,-4551.51 13.86,-186.27 116.52,182.4 c 94.59,148.09 142.2,321.22 136.54,496.85 l -126.59,3933.27 c -3.37,105.33 46.87,205.19 133.46,265.28 340.35,236.1 580.15,582.4 686.85,973 -117.4,105.5 -254.7,186.4 -403.9,238 z M 10817,10289 c -144.5,-251.2 -332.4,-478.03 -562.1,-664.17 l 121.5,-3776.84 c 9.7,-300.87 -71.8,-597.74 -233.9,-851.42 L 9579.07,4114.61 9762.86,1640.96 C 9811.21,990.191 10378,501.832 11028.7,550.172 c 312.5,23.219 603,169.629 807.6,407.027 204.6,237.401 306.4,546.341 283.2,858.851 l -280.7,3778.54 c -4.2,56.05 -12.3,111.72 -24.4,166.61 L 10817,10289"
         style="fill:#000000;fill-opacity:1;fill-rule:nonzero;stroke:none"
         id="path14" />
      <path
         d="m 9529.82,20464.3 c 0,1302.6 1055.98,2358.6 2358.58,2358.6 1302.7,0 2358.7,-1056 2358.7,-2358.6 0,-1302.6 -1056,-2358.6 -2358.7,-2358.6 -1302.6,0 -2358.58,1056 -2358.58,2358.6"
         style="fill:#000000;fill-opacity:1;fill-rule:nonzero;stroke:none"
         id="path16" />
      <path
         d="m 9370.62,18537 v 0 c -889.16,-28.7 -1658.76,-626.6 -1906.31,-1481 0,0 -95.39,-330 -372.47,-1354.8 -251.82,-931.5 -279.75,-1818.5 -324.13,-2666.6 -44.4,-848.2 -52.14,-1559.1 -52.14,-1559.1 -5.89,-669.1 314.58,-1299.1 858.84,-1688.33 L 7692.17,6128.14 5544.23,2766.04 c -168.71,-264.09 -225.61,-584.39 -158.17,-890.43 67.44,-306.04 253.69,-572.75 517.79,-741.46 549.92,-351.314 1280.51,-190.326 1631.84,359.58 l 2344.97,3670.53 c 128.34,200.89 192.94,435.89 185.24,674.14 l -126.57,3933.22 c 544.67,377.78 873.47,995.28 882.97,1657.98 0,0 7.3,636.6 46.8,1390.3 39.4,753.8 164.1,1723.2 187.5,1809.5 273.2,1010.7 352.6,1283.9 352.6,1283.9 315.6,1089.3 -311.7,2228.2 -1401,2543.7 -207,60 -422.13,87 -637.51,80.1 z m -55.9,-676.6 c 179.05,-6.5 353.24,-60 505.07,-155.1 475.31,-297.9 620.81,-931.5 323.11,-1406.9 v -0.4 c -0.5,-0.5 -280.01,-447.8 -560.11,-1013.3 -137,-276.6 -267.13,-600.1 -361.16,-876.2 -94,-276.2 -146.98,-538.3 -146.98,-561.1 -0.46,-77.6 41.42,-311.7 115.78,-565.9 74.36,-254.1 177.86,-542.4 287.12,-791 222.73,-506.7 444.38,-893.2 444.38,-893.5 v -0.5 c 279.27,-486.4 109.67,-1114 -376.73,-1393.4 -486.43,-279.33 -1113.95,-109.7 -1393.39,376.6 -0.47,0.5 -272.86,474.1 -543.07,1088.9 -266.61,606.6 -580.26,1356.8 -575.5,2189.9 5.06,893.6 395.24,1675.6 720.24,2331.8 330.43,667.1 659.72,1191.4 659.72,1191.4 193.46,308.6 537.78,491.1 901.77,477.9 z m -16.62,-466.2 v -0.5 c -198.4,7.2 -384.62,-91.6 -490.08,-259.8 0,0 -317.85,-506.7 -636.76,-1150.6 -324.31,-654.7 -667.52,-1370.4 -671.83,-2127.6 -4.03,-712.7 273.1,-1401.3 536.07,-1999.7 259.34,-590 520.48,-1044.1 520.48,-1044.1 153.93,-268 489.15,-358.6 757.16,-204.8 268.04,154 358.68,489.2 204.74,757.3 0,0.1 0,0.3 0,0.4 0,0 -233.3,406.7 -466.78,938 -118.89,270.5 -227.49,573.2 -307.81,847.7 -80.33,274.6 -135.67,506.9 -134.58,699.4 1.25,194.9 71.5,413.8 171.9,708.6 100.39,294.9 235.84,632.3 384.68,932.9 291.59,588.7 582.66,1053.8 582.66,1053.8 0,0.1 0,0.3 0,0.4 164.12,261.9 86.44,600.4 -175.47,764.6 -82.5,51.7 -177.15,80.8 -274.44,84.3"
         style="fill:#000000;fill-opacity:1;fill-rule:nonzero;stroke:none"
         id="path18" />
      <path
         d="m 9306.55,17627 c -281.24,10.2 -546.55,-130.4 -696.01,-368.8 0,0 -323.56,-515.6 -648.22,-1171 -324.65,-655.5 -691.37,-1404.3 -696.07,-2229.7 -4.39,-772.9 291,-1492.4 555.81,-2094.9 264.81,-602.4 531.82,-1066.5 531.82,-1066.5 216.67,-377.3 698.13,-507.5 1075.38,-290.8 181.16,104.1 313.56,275.8 368.08,477.5 54.51,201.7 26.67,416.8 -77.39,597.9 0,0 -227.45,396.8 -455.6,915.9 -228.14,519 -424.18,1181.8 -422.62,1452 1.24,217.6 246.47,962.2 532.37,1539.3 285.88,577.2 571.38,1033.7 571.38,1033.7 110.92,177 147.02,390.8 100.32,594.5 -46.75,203.6 -172.46,380.3 -349.5,491.3 -117.16,73.4 -251.58,114.7 -389.75,119.6"
         style="fill:#000000;fill-opacity:1;fill-rule:nonzero;stroke:none"
         id="path20" />
    </g>
  </g>
</svg>
